<svg width="210" height="175" viewBox="0 0 210 175" fill="none" xmlns="http://www.w3.org/2000/svg">
<g clip-path="url(#clip0)">
<path fill-rule="evenodd" clip-rule="evenodd" d="M126.278 113.205C124.241 104.361 118.575 97.175 112.64 90.5426C101.086 77.6308 94.9346 69.7119 91.6859 51.71C89.7756 41.1227 87.8594 29.9104 80.1464 21.8187C74.5304 15.9263 64.5501 10.6342 56.3063 14.058C43.5413 20.5957 39.2647 35.4343 39.6294 48.9934C40.0818 65.799 47.2171 76.6061 61.8095 83.7319C70.0317 87.7454 75.3502 92.6823 79.4187 100.948C82.6732 107.557 84.2942 115.674 88.5286 121.749C94.8592 130.83 103.233 135.227 113.955 134.483C105.188 115.52 94.7558 96.2763 81.7267 79.944C80.5141 78.3083 73.153 71.8714 74.8867 69.3303C76.7966 66.5325 84.0394 77.9776 83.9874 77.9079C87.7609 82.8525 91.211 88.0705 94.5901 93.3319C94.5804 93.3362 94.5692 93.3381 94.5586 93.3426C98.0387 98.7423 101.484 104.216 104.852 109.75C106.208 112.087 107.522 114.45 108.77 116.865C110.601 120.409 113.231 130.302 116.453 132.618C117.143 133.113 117.791 133.407 118.406 133.55C120.454 137.451 122.438 141.379 124.311 145.343C129.201 155.698 133.27 166.561 134.72 177.987C135.142 181.322 133.893 193.614 135.987 196.138C139.815 200.754 139.154 192.3 139.073 189.756C138.389 168.69 132.031 150.367 122.26 132.06C125.897 127.9 127.103 116.788 126.278 113.205Z" fill="#F2F2F2"/>
<path fill-rule="evenodd" clip-rule="evenodd" d="M103.124 157.543L105.174 157.676C105.199 155.065 105.18 152.455 104.908 149.854C103.885 140.103 99.6509 125.605 88.4504 123.307C88.0373 123.221 86.5042 123.112 84.6393 123.099C83.7903 122.555 82.8231 122.197 81.7883 122.062C72.2112 120.736 60.9669 127.719 55.8069 135.409C51.6471 141.61 51.7285 150.112 53.5956 157.108C54.8459 161.792 57.7997 168.545 63.4284 168.974C70.4706 169.511 71.3694 160.916 71.8325 155.888C72.4481 149.203 73.682 143.424 79.3124 139.205C80.6246 138.223 82.0442 137.375 83.368 136.408C85.4409 134.894 87.723 133.355 88.1524 130.656C88.7452 126.932 86.6513 126.119 83.3422 126.603C82.7782 126.686 77.0122 128.81 77.9696 126.897C78.2619 126.313 79.2181 125.897 80.4092 125.616C83.4525 125.487 87.0811 125.344 88.103 125.636C99.1279 128.789 102.488 144.395 103.012 154.205C103.072 155.316 103.104 156.429 103.124 157.543L103.124 157.543Z" fill="#F2F2F2"/>
<path d="M192.221 97.905C185.975 98.9147 179.866 97.2872 173.626 96.1281C167.633 95.0153 161.664 92.9253 156.905 88.9798C154.726 87.1725 152.795 84.9259 151.939 82.2158C150.719 78.3488 151.833 74.1737 151.822 70.1161C151.809 65.3543 150.631 60.7654 147.35 57.2535C145.352 55.1161 143.03 53.2417 141.463 50.7665C138.196 45.6072 140.725 38.6996 145.839 35.7868C150.498 33.1334 156.426 34.1834 161.266 36.4854C166.105 38.7874 170.354 42.2174 175.213 44.476C180.541 46.9522 186.369 47.9228 192.245 48.4805C196.739 48.9071 201.316 48.3878 204.982 51.0398C207.605 52.937 209.459 55.785 210.537 58.8516C212.575 64.6544 212.165 71.4769 211.225 77.468C210.595 81.4818 209.329 85.4563 207.019 88.7876C204.183 92.8769 199.847 95.82 195.102 97.2445C194.138 97.5339 193.178 97.7505 192.221 97.905Z" fill="#BDDFEB" fill-opacity="0.4"/>
<path d="M188.157 174.222H42.9813C32.0196 165.846 24.4037 153.898 22.3463 140.248C21.4909 134.572 21.9776 127.851 26.5984 124.452C33.7046 119.225 44.3686 125.815 52.3967 122.163C57.5684 119.81 60.117 113.696 60.1703 108.01C60.2236 102.324 58.3046 96.8353 56.8676 91.3336C55.4309 85.8318 54.4835 79.8914 56.425 74.547C58.3665 69.203 64.0827 64.8667 69.5837 66.2853C74.2979 67.5011 77.2894 72.2824 81.8069 74.0987C86.5092 75.9891 91.9675 74.2693 96.1414 71.3927C100.315 68.5161 103.637 64.5794 107.538 61.3422C114.386 55.6592 123.432 52.1765 132.228 53.5033C141.025 54.8301 149.163 61.6531 150.537 70.4509C151.66 77.648 148.636 85.9641 153.042 91.7614C158.011 98.2977 168.403 96.4629 175.586 100.433C181.433 103.664 184.552 111.154 182.731 117.587C180.871 124.155 174.55 129.668 175.579 136.417C176.317 141.256 180.602 144.598 183.621 148.448C189.423 155.848 192.047 165.659 188.157 174.222Z" fill="#F2F2F2" fill-opacity="0.5"/>
<path d="M176 174.222H51.641C47.8593 170.754 43.6156 167.561 41.4676 162.889C39.3196 158.217 39.3252 152.147 42.858 148.423C47.1219 143.929 54.249 144.542 60.2452 143.055C67.1599 141.34 73.4486 135.754 74.334 128.645C75.4775 119.468 67.8354 111.082 68.312 101.845C68.6876 94.5637 74.8308 88.0209 82.0357 87.2289C86.9063 86.6931 91.9582 88.4887 96.6636 87.1143C101.025 85.8401 104.172 82.1174 107.963 79.6007C112.412 76.6467 118.092 75.3629 123.219 76.8318C128.346 78.3005 132.686 82.7613 133.376 88.0789C134.11 93.733 131.052 100.156 134.296 104.833C136.712 108.316 141.532 108.989 145.752 108.853C149.972 108.717 154.473 108.147 158.182 110.177C161.631 112.065 163.682 115.97 164.067 119.901C164.451 123.832 163.361 127.779 161.752 131.382C160.345 134.53 158.534 137.508 157.476 140.791C156.418 144.075 156.2 147.846 157.923 150.831C159.737 153.974 163.255 155.605 166.123 157.814C171.193 161.717 175.62 167.812 176 174.222Z" fill="#BDDFEB" fill-opacity="0.3"/>
<path d="M161 43.2216L172.371 72.1338L196.601 58.4585L161 43.2216Z" fill="white"/>
<path d="M161 43.2216L183.348 65.9391L189.433 62.5043L161 43.2216Z" fill="#DAD9D9"/>
<path d="M189.433 62.5043L185.195 72.9901L183.348 65.9391L189.433 62.5043Z" fill="#DAD9D9"/>
<path d="M185.195 72.99L179.965 67.848L183.348 65.9391L185.195 72.99Z" fill="#B1B0B1"/>
<path d="M87.6998 153.088C73.3462 149.306 60.8282 139.063 54.2814 125.741C51.58 120.244 49.8468 114.139 50.253 108.027C50.6593 101.915 53.3971 95.8073 58.3036 92.1403C63.2102 88.4733 70.3609 87.6799 75.5499 90.9351C80.5635 94.0803 82.9514 100.112 87.2959 104.131C92.4882 108.935 100.727 110.337 106.987 107.043C113.247 103.749 116.766 95.7425 114.482 89.0479C112.368 82.8523 106.392 78.9999 101.201 75.0114C96.0103 71.0229 90.8485 65.4153 91.5909 58.9111C92.2292 53.3211 97.1527 49.1197 102.339 46.9392C112.269 42.7648 125.073 44.6206 131.839 53.0014C139.12 62.0182 137.72 75.1715 134.437 86.2861C131.153 97.4003 126.311 108.651 127.945 120.124C129.303 129.657 135.214 138.23 143.054 143.82C150.894 149.41 160.515 152.179 170.126 152.769C179.717 153.358 190.012 151.576 197.106 145.094C204.2 138.613 206.597 126.526 200.323 119.248C197.076 115.482 192.227 113.572 187.566 111.84C182.903 110.108 178.039 108.297 174.661 104.648C171.282 100.999 169.973 94.9022 173.15 91.0768C176.831 86.6457 186.637 86.1608 190.104 81.5611C192.579 78.2798 189.688 71.9586 186.88 68.8547" stroke="#52BFDE" stroke-width="2.5409" stroke-miterlimit="10" stroke-dasharray="7.62 7.62"/>
<path d="M158.195 93.0757C155.629 92.964 150.756 94.5596 146.717 96.084C142.062 97.8405 137.544 99.9004 137.876 99.35C138.284 98.6713 145.115 95.0105 150.594 92.2014C153.43 90.7475 155.658 88.7353 156.513 88.031C159.425 85.6362 159.112 78.3085 156.58 76.125C154.048 73.9415 151.642 75.6541 147.493 77.7272C145.224 78.8606 142.833 80.1619 140.715 81.3545C143.653 79.5667 147.118 77.358 150.048 75.2102C152.354 73.5194 154.849 72.0572 155.975 70.6768C160.306 65.3638 155.841 59.4343 153.957 58.1652C152.073 56.8965 148.547 59.1365 143.796 62.496C138.03 66.5725 131.783 71.2946 131.58 70.8029C131.209 69.9033 142.579 61.0721 147.096 57.1561C149.745 54.8587 153.352 47.2683 153.755 43.0301C154.09 39.5132 155.022 35.261 148.836 34.4684C142.65 33.6771 141.056 43.4831 136.013 47.2314C130.971 50.9796 95.1483 73.2533 95.1483 73.2533C95.1483 73.2533 81.1775 103.506 80.7875 114.286C80.3993 125.064 81.1275 131.721 81.1275 131.721L68.0837 180.185H113.891L116.102 151.188C118.047 150.18 122.654 145.731 126.923 142.24C131.191 138.749 141.699 120.643 142.473 118.882C142.779 118.185 145.195 116.422 147.499 114.063C151.017 110.459 156.967 107.506 159.203 105.991C163.375 103.166 161.289 93.2105 158.195 93.0757Z" fill="#FAC4A8"/>
<path d="M81.5245 126.904C73.7176 113.129 126.75 107.72 141.868 120.048C140.573 122.415 137.518 127.634 134.363 132.486C128.109 134.613 120.21 137.823 113.188 142.262C98.7939 151.361 90.8349 143.332 81.5245 126.904Z" fill="#E5A98E"/>
<path d="M140.975 17.7547L85.7964 29.5546L110.116 143.277L165.295 131.478L140.975 17.7547Z" fill="white"/>
<path d="M143.373 16.2257L139.679 17.0244L162.976 125.487L166.67 124.688L143.373 16.2257Z" fill="#264654"/>
<path d="M87.2098 28.3773L83.5156 29.176L106.812 137.638L110.506 136.84L87.2098 28.3773Z" fill="#264654"/>
<path d="M143.293 17.2466L142.734 14.6608C142.734 14.6608 140.756 5.49287 129.315 7.94984L92.3416 15.9225C92.3416 15.9225 80.7208 17.5303 82.8801 27.5611L83.44 30.1469L143.293 17.2466ZM106.47 137.399L108.144 145.201C108.144 145.201 109.628 152.098 121.07 149.641L158.043 141.668C158.043 141.668 169.594 139.732 167.438 129.715L166.312 124.516L106.47 137.399Z" fill="#264654"/>
<path d="M107.541 18.7331L107.907 20.4012L121.249 17.5289L120.897 15.8579L107.541 18.7331Z" fill="#EEEDED"/>
<path d="M103.859 19.5241L104.226 21.1922L106.444 20.724L106.089 19.0393L103.859 19.5241Z" fill="#EEEDED"/>
<path d="M141.486 61.9813L104.611 70.1533C101.501 70.8487 98.2546 68.0919 97.3634 63.9949L91.8168 38.7596C90.9119 34.6655 92.702 30.7945 95.8162 30.117L132.695 21.963C135.805 21.2676 139.052 24.0244 139.943 28.1214L145.489 53.3567C146.39 57.4328 144.6 61.3039 141.486 61.9813Z" fill="#F6F5F5"/>
<path d="M139.505 26.8446L139.157 25.2463C138.637 22.8555 136.264 21.3543 133.887 21.8713L94.3755 30.5808C91.9848 31.1008 90.4835 33.4734 91.0006 35.8504L91.3483 37.4488L139.505 26.8446Z" fill="#2994D2"/>
<path d="M101.581 59.4637L101.138 59.5614C101.105 59.5687 101.075 59.5664 101.051 59.5543C101.027 59.542 101.006 59.5261 100.989 59.5065L100.525 59.0143C100.523 59.0544 100.516 59.0911 100.503 59.1243L100.315 59.6551C100.306 59.6792 100.294 59.7024 100.278 59.7247C100.263 59.7456 100.24 59.7593 100.21 59.766L99.7983 59.8566L100.188 58.8378L99.4417 58.127L99.8849 58.0294C99.9184 58.022 99.9439 58.021 99.9615 58.0265C99.979 58.032 99.9962 58.0434 100.013 58.0608L100.471 58.5333C100.473 58.5131 100.476 58.4925 100.48 58.4716C100.485 58.4496 100.491 58.4277 100.499 58.4061L100.665 57.9258C100.683 57.8764 100.712 57.847 100.755 57.8377L101.178 57.7444L100.795 58.6828L101.581 59.4637Z" fill="black"/>
<path d="M103.362 59.0713L102.918 59.169C102.885 59.1763 102.856 59.174 102.831 59.162C102.807 59.1496 102.787 59.1337 102.77 59.1141L102.305 58.6219C102.303 58.662 102.296 58.6987 102.284 58.7319L102.096 59.2627C102.087 59.2868 102.074 59.31 102.058 59.3323C102.043 59.3532 102.02 59.3669 101.99 59.3736L101.579 59.4643L101.968 58.4454L101.222 57.7346L101.665 57.637C101.699 57.6296 101.724 57.6286 101.742 57.6341C101.759 57.6396 101.777 57.651 101.793 57.6684L102.252 58.1409C102.253 58.1207 102.256 58.1001 102.261 58.0792C102.265 58.0572 102.272 58.0353 102.28 58.0137L102.446 57.5334C102.463 57.484 102.493 57.4546 102.535 57.4453L102.958 57.352L102.576 58.2904L103.362 59.0713Z" fill="black"/>
<path d="M105.142 58.6789L104.699 58.7766C104.665 58.784 104.636 58.7816 104.611 58.7696C104.588 58.7573 104.567 58.7413 104.55 58.7217L104.085 58.2295C104.084 58.2697 104.077 58.3063 104.064 58.3395L103.876 58.8703C103.867 58.8944 103.855 58.9176 103.839 58.9399C103.823 58.9608 103.801 58.9745 103.771 58.9812L103.359 59.0719L103.748 58.053L103.002 57.3423L103.446 57.2446C103.479 57.2372 103.505 57.2363 103.522 57.2417C103.54 57.2472 103.557 57.2586 103.574 57.276L104.032 57.7485C104.033 57.7283 104.037 57.7077 104.041 57.6868C104.046 57.6648 104.052 57.6429 104.06 57.6213L104.226 57.141C104.243 57.0916 104.273 57.0622 104.315 57.0529L104.739 56.9596L104.356 57.898L105.142 58.6789Z" fill="black"/>
<path d="M106.922 58.2865L106.479 58.3842C106.446 58.3916 106.417 58.3892 106.392 58.3772C106.368 58.3649 106.348 58.3489 106.33 58.3293L105.866 57.8371C105.864 57.8773 105.857 57.9139 105.844 57.9471L105.656 58.4779C105.648 58.502 105.635 58.5252 105.619 58.5475C105.604 58.5684 105.581 58.5821 105.551 58.5888L105.14 58.6795L105.529 57.6606L104.783 56.9499L105.226 56.8522C105.26 56.8448 105.285 56.8439 105.303 56.8493C105.32 56.8548 105.337 56.8662 105.354 56.8836L105.812 57.3561C105.814 57.3359 105.817 57.3153 105.822 57.2944C105.826 57.2724 105.832 57.2505 105.841 57.2289L106.007 56.7486C106.024 56.6992 106.053 56.6698 106.096 56.6605L106.519 56.5672L106.137 57.5056L106.922 58.2865Z" fill="black"/>
<path d="M108.703 57.8941L108.26 57.9918C108.226 57.9992 108.197 57.9968 108.172 57.9848C108.148 57.9725 108.128 57.9565 108.111 57.9369L107.646 57.4447C107.645 57.4849 107.637 57.5215 107.625 57.5547L107.437 58.0855C107.428 58.1096 107.416 58.1328 107.399 58.1551C107.384 58.176 107.361 58.1898 107.331 58.1964L106.92 58.2871L107.309 57.2682L106.563 56.5575L107.006 56.4598C107.04 56.4524 107.065 56.4515 107.083 56.4569C107.101 56.4624 107.118 56.4739 107.134 56.4912L107.593 56.9637C107.594 56.9435 107.597 56.923 107.602 56.902C107.607 56.88 107.613 56.8581 107.621 56.8365L107.787 56.3562C107.804 56.3068 107.834 56.2774 107.876 56.2681L108.299 56.1748L107.917 57.1132L108.703 57.8941Z" fill="black"/>
<path d="M110.483 57.5017L110.04 57.5994C110.007 57.6068 109.977 57.6044 109.953 57.5924C109.929 57.5801 109.908 57.5641 109.891 57.5445L109.427 57.0524C109.425 57.0925 109.418 57.1291 109.405 57.1623L109.217 57.6931C109.208 57.7172 109.196 57.7404 109.18 57.7627C109.165 57.7836 109.142 57.7974 109.112 57.804L108.7 57.8947L109.09 56.8758L108.344 56.1651L108.787 56.0674C108.82 56.06 108.846 56.0591 108.863 56.0646C108.881 56.07 108.898 56.0815 108.915 56.0988L109.373 56.5713C109.375 56.5511 109.378 56.5306 109.382 56.5096C109.387 56.4876 109.393 56.4658 109.401 56.4441L109.567 55.9638C109.584 55.9144 109.614 55.885 109.657 55.8757L110.08 55.7824L109.697 56.7209L110.483 57.5017Z" fill="black"/>
<path d="M112.264 57.1093L111.82 57.207C111.787 57.2144 111.758 57.212 111.733 57.2C111.709 57.1877 111.689 57.1717 111.672 57.1521L111.207 56.66C111.205 56.7001 111.198 56.7367 111.186 56.7699L110.997 57.3007C110.989 57.3248 110.976 57.348 110.96 57.3703C110.945 57.3912 110.922 57.405 110.892 57.4116L110.481 57.5023L110.87 56.4835L110.124 55.7727L110.567 55.675C110.601 55.6676 110.626 55.6667 110.644 55.6722C110.661 55.6776 110.679 55.6891 110.695 55.7064L111.154 56.1789C111.155 56.1587 111.158 56.1382 111.163 56.1172C111.167 56.0952 111.174 56.0734 111.182 56.0517L111.348 55.5714C111.365 55.522 111.395 55.4927 111.437 55.4833L111.86 55.39L111.478 56.3285L112.264 57.1093Z" fill="black"/>
<path d="M114.044 56.7169L113.601 56.8146C113.567 56.822 113.538 56.8197 113.513 56.8076C113.49 56.7953 113.469 56.7793 113.452 56.7597L112.987 56.2676C112.986 56.3077 112.979 56.3443 112.966 56.3775L112.778 56.9083C112.769 56.9324 112.757 56.9556 112.741 56.9779C112.725 56.9988 112.703 57.0126 112.673 57.0192L112.261 57.1099L112.65 56.0911L111.904 55.3803L112.348 55.2826C112.381 55.2752 112.407 55.2743 112.424 55.2798C112.442 55.2853 112.459 55.2967 112.476 55.314L112.934 55.7865C112.935 55.7663 112.938 55.7458 112.943 55.7249C112.948 55.7028 112.954 55.681 112.962 55.6593L113.128 55.179C113.145 55.1296 113.175 55.1003 113.217 55.0909L113.641 54.9977L113.258 55.9361L114.044 56.7169Z" fill="black"/>
<rect x="95.2956" y="39.6125" width="32.1806" height="1.78782" transform="rotate(-12.2723 95.2956 39.6125)" fill="#1B2746"/>
<rect x="96.2836" y="44.1546" width="43.265" height="1.78781" transform="rotate(-12.2723 96.2836 44.1546)" fill="#1B2746"/>
<rect x="98.2596" y="53.2388" width="37.544" height="1.78781" transform="rotate(-12.2723 98.2596 53.2388)" fill="#1B2746"/>
<rect x="97.2716" y="48.6967" width="37.544" height="1.78781" transform="rotate(-12.2723 97.2716 48.6967)" fill="#1B2746"/>
<rect x="100.312" y="62.6724" width="44.3377" height="1.78781" transform="rotate(-12.2723 100.312 62.6724)" fill="#0696D6"/>
<path d="M110.537 28.2527L110.141 28.3388L110.106 28.1749C110.067 27.9973 109.901 27.8904 109.723 27.929C109.546 27.9677 109.439 28.134 109.477 28.3116L109.513 28.4755L108.884 28.6122L108.849 28.4483C108.81 28.2707 108.644 28.1638 108.466 28.2024C108.289 28.2411 108.182 28.4074 108.22 28.585L108.256 28.7489L107.628 28.8856L107.592 28.7217C107.553 28.5441 107.387 28.4372 107.209 28.4758C107.032 28.5145 106.925 28.6808 106.964 28.8584L106.999 29.0223L106.603 29.1085C106.384 29.1561 106.246 29.3723 106.293 29.5909L106.99 32.73C107.038 32.9486 107.254 33.0875 107.473 33.04L109.672 32.5615C109.713 32.5526 109.745 32.5027 109.736 32.4617C109.727 32.4208 109.677 32.3887 109.636 32.3976L107.437 32.876C107.3 32.9058 107.181 32.8173 107.154 32.6943L106.625 30.2626L111.021 29.2921L111.312 30.6309C111.321 30.6719 111.371 30.7039 111.412 30.695C111.453 30.6861 111.485 30.6362 111.476 30.5952L111.031 28.546C110.972 28.3441 110.756 28.2051 110.537 28.2527ZM109.644 28.2896C109.626 28.2076 109.677 28.1108 109.759 28.093C109.841 28.0752 109.938 28.1256 109.955 28.2076L110.059 28.6857C110.077 28.7677 110.027 28.8645 109.945 28.8824C109.863 28.9002 109.766 28.8497 109.748 28.7677L109.644 28.2896ZM108.387 28.563C108.369 28.481 108.42 28.3842 108.502 28.3664C108.584 28.3486 108.681 28.399 108.699 28.481L108.803 28.9591C108.82 29.0411 108.77 29.1379 108.688 29.1558C108.606 29.1736 108.509 29.1231 108.491 29.0411L108.387 28.563ZM107.13 28.8364C107.113 28.7544 107.163 28.6576 107.245 28.6398C107.327 28.622 107.424 28.6724 107.442 28.7544L107.546 29.2325C107.564 29.3145 107.513 29.4113 107.431 29.4292C107.349 29.447 107.252 29.3965 107.234 29.3145L107.13 28.8364ZM110.988 29.1418L106.592 30.1123L106.474 29.5659C106.444 29.4293 106.532 29.3099 106.655 29.2831L107.052 29.197L107.087 29.3609C107.126 29.5385 107.292 29.6454 107.47 29.6068C107.647 29.5681 107.754 29.4018 107.716 29.2242L107.68 29.0603L108.308 28.9236L108.344 29.0875C108.383 29.2651 108.549 29.372 108.727 29.3334C108.904 29.2947 109.011 29.1284 108.972 28.9508L108.937 28.7869L109.565 28.6502L109.601 28.8141C109.639 28.9917 109.806 29.0986 109.983 29.06C110.161 29.0213 110.268 28.855 110.229 28.6774L110.197 28.5271L110.593 28.4409C110.729 28.4112 110.849 28.4997 110.876 28.6227L110.988 29.1418Z" fill="#F6F5F5"/>
<path d="M108.793 30.3633C108.775 30.2813 108.692 30.2279 108.597 30.2487L108.282 30.317C108.2 30.3349 108.147 30.418 108.168 30.5137L108.218 30.7459C108.236 30.8279 108.319 30.8813 108.415 30.8605L108.729 30.7922C108.811 30.7743 108.865 30.6912 108.844 30.5955L108.793 30.3633ZM108.366 30.6996L108.315 30.4673L108.629 30.399L108.68 30.6312L108.366 30.6996Z" fill="#F6F5F5"/>
<path d="M107.851 30.5683C107.833 30.4864 107.75 30.4329 107.654 30.4537L107.34 30.5221C107.258 30.5399 107.204 30.6231 107.225 30.7187L107.276 30.9509C107.294 31.0329 107.377 31.0863 107.472 31.0655L107.787 30.9972C107.868 30.9794 107.922 30.8962 107.901 30.8006L107.851 30.5683ZM107.426 30.9182L107.375 30.686L107.69 30.6176L107.74 30.8499L107.426 30.9182Z" fill="#F6F5F5"/>
<path d="M110.601 30.3851C110.683 30.3672 110.736 30.2841 110.715 30.1884L110.665 29.9562C110.647 29.8742 110.564 29.8208 110.468 29.8416L110.154 29.9099C110.072 29.9278 110.019 30.0109 110.039 30.1066L110.09 30.3388C110.108 30.4208 110.191 30.4742 110.287 30.4534L110.601 30.3851ZM110.2 30.0572L110.515 29.9889L110.565 30.2211L110.251 30.2895L110.2 30.0572Z" fill="#F6F5F5"/>
<path d="M108.948 31.0737C108.93 30.9918 108.847 30.9383 108.751 30.9591L108.437 31.0275C108.355 31.0453 108.302 31.1285 108.322 31.2241L108.373 31.4564C108.391 31.5383 108.474 31.5918 108.569 31.571L108.884 31.5026C108.966 31.4848 109.019 31.4016 108.998 31.306L108.948 31.0737ZM108.52 31.41L108.47 31.1778L108.784 31.1094L108.834 31.3416L108.52 31.41Z" fill="#F6F5F5"/>
<path d="M108.005 31.2788C107.987 31.1968 107.904 31.1434 107.809 31.1642L107.494 31.2325C107.412 31.2503 107.359 31.3335 107.38 31.4291L107.43 31.6614C107.448 31.7433 107.531 31.7968 107.627 31.776L107.941 31.7076C108.023 31.6898 108.076 31.6066 108.056 31.511L108.005 31.2788ZM107.578 31.615L107.527 31.3828L107.841 31.3144L107.892 31.5467L107.578 31.615Z" fill="#F6F5F5"/>
<path d="M108.903 31.6557L108.589 31.7241C108.507 31.7419 108.453 31.8251 108.474 31.9207L108.524 32.153C108.542 32.2349 108.625 32.2884 108.721 32.2676L109.035 32.1992C109.117 32.1814 109.171 32.0982 109.15 32.0026L109.099 31.7703C109.082 31.6884 108.998 31.6349 108.903 31.6557ZM108.675 32.1203L108.624 31.888L108.938 31.8197L108.989 32.0519L108.675 32.1203Z" fill="#F6F5F5"/>
<path d="M109.344 30.6584L109.658 30.5901C109.74 30.5723 109.794 30.4891 109.773 30.3935L109.722 30.1612C109.704 30.0793 109.621 30.0258 109.526 30.0466L109.211 30.115C109.129 30.1328 109.076 30.216 109.097 30.3116L109.147 30.5438C109.179 30.6228 109.262 30.6763 109.344 30.6584ZM109.258 30.2623L109.572 30.1939L109.622 30.4261L109.308 30.4945L109.258 30.2623Z" fill="#F6F5F5"/>
<path d="M109.313 31.2375C109.33 31.3195 109.414 31.373 109.509 31.3521C109.55 31.3432 109.582 31.2933 109.573 31.2523C109.564 31.2114 109.514 31.1793 109.473 31.1882L109.423 30.956L109.737 30.8876C109.778 30.8787 109.81 30.8288 109.801 30.7878C109.792 30.7468 109.742 30.7148 109.702 30.7237L109.387 30.792C109.305 30.8099 109.252 30.893 109.273 30.9887L109.313 31.2375Z" fill="#F6F5F5"/>
<path d="M107.96 31.8609L107.646 31.9292C107.564 31.9471 107.51 32.0302 107.531 32.1259L107.582 32.3581C107.6 32.4401 107.683 32.4935 107.778 32.4727L108.093 32.4044C108.175 32.3865 108.228 32.3034 108.207 32.2077L108.157 31.9755C108.139 31.8935 108.056 31.8401 107.96 31.8609ZM107.732 32.3254L107.682 32.0932L107.996 32.0248L108.046 32.2571L107.732 32.3254Z" fill="#F6F5F5"/>
<path d="M110.401 30.5858C109.991 30.675 109.676 31.0011 109.595 31.4193C109.528 31.8345 109.705 32.2538 110.055 32.4783C110.404 32.7028 110.875 32.7003 111.222 32.4532C111.569 32.2061 111.735 31.7837 111.646 31.3739C111.524 30.8138 110.961 30.464 110.401 30.5858ZM110.811 32.4711C110.456 32.5483 110.097 32.4118 109.889 32.1136C109.681 31.8155 109.67 31.4318 109.876 31.1294C110.068 30.83 110.419 30.6678 110.777 30.7331C111.134 30.7984 111.407 31.068 111.482 31.4095C111.589 31.9013 111.289 32.3671 110.811 32.4711Z" fill="#F6F5F5"/>
<path d="M111.004 31.1845L110.523 31.9329L110.19 31.7192C110.157 31.6978 110.102 31.7097 110.081 31.7429C110.059 31.7762 110.071 31.8308 110.104 31.8522L110.504 32.1088C110.537 32.1301 110.591 32.1183 110.613 32.085L111.137 31.27C111.158 31.2367 111.146 31.1821 111.113 31.1607C111.077 31.1257 111.036 31.1346 111.004 31.1845Z" fill="#F6F5F5"/>
<path d="M113.254 28.5057L113.732 28.4017L114.625 30.139L114.688 28.1937L115.426 28.0332L115.952 30.4513L115.487 30.5523L115.062 28.5988L114.996 30.6593L114.49 30.7692L113.56 28.9256L113.985 30.8792L113.52 30.9802L113.051 28.8218C113.021 28.6851 113.103 28.5384 113.254 28.5057Z" fill="#F6F5F5"/>
<path d="M117.051 30.241C116.474 30.3522 116.116 30.0867 115.976 29.4446C115.836 28.8025 116.055 28.4259 116.626 28.2875C117.227 28.1567 117.58 28.4661 117.71 29.1961L116.495 29.4606C116.571 29.7445 116.726 29.868 116.959 29.8175C117.068 29.7937 117.168 29.729 117.229 29.6155C117.261 29.5656 117.31 29.5264 117.378 29.5116L117.72 29.4373C117.714 29.8679 117.502 30.143 117.051 30.241ZM116.423 29.1327L117.134 28.9782C117.053 28.7382 116.9 28.6284 116.695 28.6729C116.493 28.7312 116.411 28.8779 116.423 29.1327Z" fill="#F6F5F5"/>
<path d="M119.353 27.4081L119.65 28.7742C119.772 29.3343 119.548 29.6836 118.96 29.8114C118.37 29.9255 118.015 29.6737 117.878 29.0453C117.738 28.4032 117.913 28.0218 118.415 27.8982C118.648 27.8477 118.846 27.9047 119.011 28.0692L118.835 27.2632L119.067 27.2127C119.207 27.1966 119.326 27.2851 119.353 27.4081ZM118.367 28.9246C118.45 29.3071 118.615 29.4717 118.888 29.4122C119.161 29.3528 119.256 29.1318 119.173 28.7493C119.079 28.3834 118.904 28.2355 118.661 28.3027C118.385 28.3485 118.3 28.5528 118.367 28.9246Z" fill="#F6F5F5"/>
<path d="M120.374 29.0746L120.454 29.4435L120.058 29.5297L120.007 29.2974C119.987 29.2018 120.032 29.1489 120.128 29.1281L120.374 29.0746Z" fill="#F6F5F5"/>
<path d="M120.883 27.7334L120.829 27.7453L121.055 28.7835C121.072 28.8655 121.122 28.8976 121.218 28.8767L121.368 28.8441L121.445 29.1993C121.298 29.2456 121.134 29.2813 120.954 29.3062C120.773 29.3312 120.667 29.2397 120.62 29.0212L120.174 26.972L120.42 26.9185C120.543 26.8917 120.676 26.9773 120.703 27.1002L120.768 27.4008L121.055 27.3384L121.079 27.4476C121.095 27.5872 121.02 27.7037 120.883 27.7334Z" fill="#F6F5F5"/>
<path d="M123.022 28.8849C122.869 28.9039 122.772 28.8534 122.74 28.7031L122.529 27.7332C122.473 27.5449 122.343 27.473 122.138 27.5176C121.934 27.5622 121.845 27.6816 121.887 27.8729L122.148 29.075L121.67 29.179L121.429 28.0725C121.313 27.5397 121.527 27.207 122.06 27.0912C122.593 26.9753 122.922 27.1754 123.028 27.7248L123.268 28.8314L123.022 28.8849Z" fill="#F6F5F5"/>
<path d="M98.7692 44.6921C98.3296 42.6711 99.6115 40.6765 101.632 40.2368L142.697 31.304C144.718 30.8644 146.713 32.1463 147.153 34.1673L147.506 35.7936C147.946 37.8146 146.664 39.8093 144.643 40.2489L110.691 47.6344C110.101 47.7629 109.682 48.2886 109.689 48.8927C109.697 49.6045 109.498 53.8814 109.498 53.8814C109.498 53.8814 107.524 50.0372 107.251 49.4229C107.007 48.8705 106.407 48.5663 105.817 48.6947L103.578 49.1817C101.557 49.6213 99.5626 48.3394 99.123 46.3184L98.7692 44.6921Z" fill="white"/>
<path fill-rule="evenodd" clip-rule="evenodd" d="M105.948 48.6733C105.904 48.6781 105.86 48.6853 105.817 48.6947L103.578 49.1817C101.557 49.6213 99.5626 48.3394 99.123 46.3185L98.7692 44.6921C98.3296 42.6712 99.6115 40.6765 101.632 40.2369L142.697 31.3041C144.718 30.8645 146.713 32.1464 147.153 34.1673L147.506 35.7937C147.946 37.8146 146.664 39.8093 144.643 40.2489L110.691 47.6345C110.647 47.644 110.605 47.6556 110.563 47.6693C110.561 47.6699 110.56 47.6704 110.558 47.671C110.245 47.7754 109.991 47.9951 109.84 48.2753C109.741 48.4601 109.686 48.6712 109.689 48.8928C109.696 49.5846 109.482 53.8103 109.482 53.8103C109.482 53.8103 107.532 50.0554 107.251 49.4229C107.162 49.2203 107.024 49.0511 106.857 48.9243C106.603 48.7321 106.281 48.6377 105.953 48.6727C105.951 48.6729 105.95 48.6731 105.948 48.6733ZM100.836 36.5776L141.901 27.6448C145.943 26.7656 149.933 29.3294 150.812 33.3713L151.166 34.9977C152.045 39.0396 149.481 43.0289 145.439 43.9082L113.031 50.9579C112.347 52.5554 110.074 57.5098 110.074 57.5098C110.09 57.5849 106.245 53.7592 105.069 52.6898L104.374 52.841C100.332 53.7202 96.343 51.1563 95.4637 47.1144L95.11 45.4881C94.2307 41.4462 96.7946 37.4569 100.836 36.5776Z" fill="#FFC909"/>
<path d="M106.707 45.7287L105.819 44.9027L105.468 46.0016L104.306 46.2579L105.067 44.2117L103.501 42.7576L104.708 42.4917L105.594 43.3114L105.946 42.2188L107.109 41.9625L106.323 43.9877L107.913 45.4628L106.707 45.7287Z" fill="black"/>
<path d="M110.402 44.9143L109.514 44.0884L109.163 45.1872L108.001 45.4435L108.762 43.3973L107.196 41.9432L108.403 41.6773L109.289 42.497L109.641 41.4044L110.804 41.1481L110.018 43.1733L111.608 44.6484L110.402 44.9143Z" fill="black"/>
<path d="M114.097 44.1L113.209 43.274L112.859 44.3729L111.696 44.6291L112.457 42.5829L110.891 41.1289L112.098 40.8629L112.984 41.6826L113.336 40.59L114.499 40.3337L113.713 42.3589L115.303 43.834L114.097 44.1Z" fill="black"/>
<path d="M117.792 43.2856L116.905 42.4596L116.554 43.5585L115.391 43.8148L116.152 41.7686L114.586 40.3145L115.793 40.0485L116.679 40.8682L117.031 39.7756L118.194 39.5193L117.408 41.5446L118.999 43.0196L117.792 43.2856Z" fill="black"/>
<path d="M121.487 42.4712L120.6 41.6452L120.249 42.7441L119.086 43.0004L119.848 40.9542L118.281 39.5001L119.488 39.2341L120.374 40.0539L120.726 38.9612L121.889 38.705L121.103 40.7302L122.694 42.2052L121.487 42.4712Z" fill="black"/>
<path d="M125.182 41.6568L124.295 40.8308L123.944 41.9297L122.781 42.186L123.543 40.1398L121.977 38.6857L123.183 38.4198L124.069 39.2395L124.422 38.1469L125.584 37.8906L124.798 39.9158L126.389 41.3909L125.182 41.6568Z" fill="black"/>
<path d="M128.877 40.8424L127.99 40.0164L127.639 41.1153L126.476 41.3716L127.238 39.3254L125.672 37.8713L126.878 37.6054L127.764 38.4251L128.117 37.3325L129.279 37.0762L128.493 39.1014L130.084 40.5765L128.877 40.8424Z" fill="black"/>
<path d="M132.572 40.0281L131.685 39.2021L131.334 40.301L130.171 40.5572L130.933 38.511L129.367 37.057L130.573 36.791L131.459 37.6107L131.812 36.5181L132.974 36.2618L132.188 38.287L133.779 39.7621L132.572 40.0281Z" fill="black"/>
<path d="M136.267 39.2137L135.38 38.3877L135.029 39.4866L133.866 39.7429L134.628 37.6967L133.062 36.2426L134.269 35.9766L135.154 36.7963L135.507 35.7037L136.67 35.4474L135.883 37.4727L137.474 38.9477L136.267 39.2137Z" fill="black"/>
<path d="M139.962 38.3993L139.075 37.5733L138.724 38.6722L137.561 38.9285L138.323 36.8823L136.757 35.4282L137.964 35.1622L138.849 35.9819L139.202 34.8893L140.365 34.6331L139.578 36.6583L141.169 38.1333L139.962 38.3993Z" fill="black"/>
<path d="M84.3315 57.4943C88.4271 56.9138 91.4466 61.1069 92.5245 66.9107C93.6031 72.7154 93.8123 77.6267 93.9453 80.1362C94 90.2216 95.583 92.9074 97 95.2216C98.3385 97.4074 101.017 103.119 103.914 115.722C106.414 126.596 105.414 144.57 99.3244 145.526C87.8693 147.324 83.9667 142.23 80.9576 135.187C77.9507 128.145 74.239 112.515 76.929 104.523C82.0933 89.1662 84.308 80.0797 83.1654 72.0089C82.0224 63.939 80.2341 58.076 84.3315 57.4943Z" fill="#FAC4A8"/>
<path d="M81.6141 59.6603C82.4562 58.6033 84.0571 57.789 85.3284 60.7572C86.4018 63.2664 88.2362 68.7141 87.7792 71.1898C87.3244 73.665 83.1597 75.3997 82.9297 74.0667C82.6993 72.7332 80.4854 61.0751 81.6141 59.6603Z" fill="#FFE8DB"/>
<path d="M114.434 173.077C108.931 157.979 96.7644 151.319 96.7644 151.319C105.221 152.55 112.29 151.629 117.809 150.014C117.129 150.546 116.545 150.959 116.102 151.188L114.434 173.077Z" fill="#E5A98E"/>
<path d="M148.498 57.4526C147.98 57.7504 145.664 60.4534 147.156 65.7046C148.647 70.9559 151.459 72.4798 153.718 71.2559C157.595 69.1551 158.042 65.2542 157.296 62.5538C156.974 61.3856 156.294 58.2617 154.016 57.0021C151.737 55.743 149.091 57.1121 148.498 57.4526Z" fill="#FAC4A8"/>
<path d="M151.269 57.4243C151.269 57.4243 153.298 58.7817 154.358 61.5151C155.535 64.5503 155.535 67.586 155.535 67.586C155.535 67.586 157.741 66.3981 156.638 62.6369C155.969 60.3556 155.02 58.7652 153.769 57.9521C152.958 57.4247 151.79 57.1904 151.269 57.4243Z" fill="#FFE8DB"/>
<path d="M151.726 74.9237C151.318 75.1881 149.422 77.6828 150.292 82.7684C151.162 87.854 153.074 90.1266 154.956 89.1001C158.153 87.3562 158.293 80.9615 157.862 78.3467C157.431 75.732 152.55 74.3907 151.726 74.9237Z" fill="#FAC4A8"/>
<path d="M158.087 81.3388C157.843 79.131 157.203 77.4989 156.128 76.5185C155.431 75.8828 154.335 75.4463 153.785 75.5598C153.785 75.5598 155.521 77.185 156.066 79.8806C156.671 82.8736 156.129 85.6419 156.129 85.6419C156.129 85.6419 158.492 84.9801 158.087 81.3388Z" fill="#FFE8DB"/>
<path d="M157.755 93.1474C156.015 92.5905 152.421 93.4504 152.614 98.6526C152.808 103.855 155.32 108.5 158.026 106.643C160.732 104.784 161.312 101.997 160.925 99.2104C160.538 96.423 159.494 93.7052 157.755 93.1474Z" fill="#FAC4A8"/>
<path d="M160.212 99.343C159.949 97.307 159.258 95.8022 158.101 94.8983C157.349 94.3122 156.167 93.9092 155.574 94.0144C155.574 94.0144 157.446 95.5126 158.032 97.9983C158.685 100.758 158.101 103.311 158.101 103.311C158.101 103.311 160.648 102.7 160.212 99.343Z" fill="#FFE8DB"/>
<path d="M166.998 101.999C167.429 104.008 166.44 105.915 164.788 106.259L118.908 115.8C117.256 116.145 115.565 114.794 115.133 112.785L107.046 75.1956C106.615 73.186 107.603 71.2794 109.257 70.9357L155.136 61.3947C156.789 61.0505 158.478 62.4007 158.91 64.4099L166.998 101.999Z" fill="#E3E3E3"/>
<g opacity="0.9">
<path opacity="0.9" d="M170.452 98.6294C170.883 100.639 169.895 102.545 168.241 102.89L122.362 112.43C120.709 112.773 119.019 111.424 118.587 109.415L110.499 71.8256C110.068 69.8164 111.057 67.9094 112.709 67.5657L158.59 58.0246C160.242 57.6809 161.931 59.0307 162.364 61.0394L170.452 98.6294Z" fill="white"/>
<path d="M122.648 85.1601L134.822 71.5102C135.592 70.6474 136.848 70.4147 137.876 70.9444L154.133 79.3257L157.554 97.7863L126.068 103.621L122.648 85.1601Z" fill="#EE8F22"/>
<path d="M148.678 70.2158L124.477 74.7004L129.408 101.315L153.61 96.8305L148.678 70.2158Z" fill="#FAFBFB"/>
<path d="M147.518 72.0878L126.23 76.0325L126.381 76.8439L147.668 72.8992L147.518 72.0878Z" fill="#DCDBDB"/>
<path d="M144.624 74.311L126.532 77.6633L126.683 78.4747L144.774 75.1224L144.624 74.311Z" fill="#DCDBDB"/>
<path d="M141.99 76.4858L126.835 79.2942L126.985 80.1056L142.141 77.2972L141.99 76.4858Z" fill="#DCDBDB"/>
<path d="M142.571 79.6167L127.415 82.4252L127.565 83.2366L142.721 80.4281L142.571 79.6167Z" fill="#DCDBDB"/>
<path d="M138.947 81.9076L127.705 83.9908L127.855 84.8022L139.097 82.719L138.947 81.9076Z" fill="#DCDBDB"/>
<path d="M150.198 83.2154L138.957 85.2985L139.107 86.11L150.348 84.027L150.198 83.2154Z" fill="#DCDBDB"/>
<path d="M150.494 84.8134L141.351 86.5077L141.501 87.3191L150.645 85.6248L150.494 84.8134Z" fill="#DCDBDB"/>
<path d="M140.102 91.4786L122.65 85.1709L126.068 103.621L140.102 91.4786Z" fill="#FFB800"/>
<path d="M140.102 91.4786L154.135 79.3365L157.554 97.7865L140.102 91.4786Z" fill="#FFB800"/>
<path d="M138.243 89.971L126.068 103.621L157.554 97.7865L141.296 89.4052C140.269 88.8755 139.013 89.1081 138.243 89.971Z" fill="#FCA017"/>
<path d="M154.591 81.7991C155.951 81.5471 156.85 80.2403 156.598 78.8802C156.346 77.5201 155.039 76.6219 153.679 76.8739C152.319 77.126 151.42 78.4328 151.672 79.7929C151.924 81.1529 153.231 82.0512 154.591 81.7991Z" fill="#0696D6"/>
<path d="M153.349 78.1908L153.789 80.5656L153.117 80.6902L152.773 78.8344L152.333 78.916L152.236 78.397L153.349 78.1908Z" fill="white"/>
<path d="M155.53 78.892C155.715 78.9983 155.828 79.1645 155.87 79.3905C155.897 79.5375 155.884 79.6797 155.831 79.8169C155.779 79.9543 155.682 80.0739 155.54 80.1762C155.399 80.2783 155.214 80.3508 154.985 80.3931C154.818 80.4242 154.649 80.4345 154.477 80.4242C154.305 80.4137 154.154 80.3822 154.022 80.3294L154.17 79.7793C154.276 79.8252 154.39 79.8542 154.51 79.8671C154.631 79.8799 154.749 79.8755 154.864 79.8541C154.98 79.8327 155.068 79.7935 155.128 79.7367C155.189 79.6799 155.212 79.6117 155.198 79.5325C155.183 79.4534 155.138 79.3997 155.063 79.3717C154.987 79.3438 154.864 79.3454 154.691 79.3774L154.047 79.4968L153.908 78.0872L155.422 77.8068L155.518 78.3258L154.561 78.5031L154.594 78.8549L154.754 78.8254C155.087 78.7636 155.346 78.7859 155.53 78.892Z" fill="white"/>
</g>
</g>
<defs>
<clipPath id="clip0">
<rect width="210" height="174" fill="white" transform="translate(0 0.221558)"/>
</clipPath>
</defs>
</svg>
